<?xml version="1.0" encoding="UTF-8"?> <svg xmlns="http://www.w3.org/2000/svg" width="632" height="551" viewBox="0 0 632 551" fill="none"><path d="M349.351 0L363.854 17.6616L378.525 0.135083L379.792 1.18195L364.479 19.4852C364.403 19.5781 364.308 19.6535 364.2 19.7059C364.092 19.7584 363.974 19.7868 363.854 19.7891C363.731 19.7893 363.61 19.7621 363.499 19.7095C363.388 19.6569 363.29 19.5803 363.212 19.4852L348.018 1.04687L349.351 0Z" fill="#5CB1F9"></path><path d="M349.368 11.5325L363.887 29.211L378.559 11.6676L379.825 12.7313L364.512 31.0346C364.433 31.1266 364.334 31.2 364.223 31.2496C364.112 31.2992 363.992 31.3238 363.87 31.3216C363.75 31.3229 363.63 31.2961 363.522 31.2434C363.414 31.1906 363.319 31.1133 363.246 31.0177L348.051 12.5962L349.368 11.5325Z" fill="#5CB1F9"></path><path d="M349.334 21.8323L363.853 39.5108L378.525 21.9674L379.791 23.0311L364.478 41.3343C364.397 41.4238 364.298 41.4955 364.187 41.5449C364.077 41.5943 363.957 41.6203 363.836 41.6214C363.713 41.6228 363.592 41.5961 363.481 41.5434C363.369 41.4908 363.272 41.4135 363.195 41.3175L348 22.896L349.334 21.8323Z" fill="#5CB1F9"></path><path d="M349.351 33.3815L363.87 51.0431L378.542 33.5166L379.808 34.5803L364.495 52.8666C364.422 52.9623 364.327 53.0396 364.218 53.0924C364.11 53.1451 363.991 53.1719 363.87 53.1706C363.75 53.1683 363.632 53.1399 363.524 53.0874C363.417 53.0349 363.321 52.9596 363.246 52.8666L348.051 34.4283L349.351 33.3815Z" fill="#5CB1F9"></path><path d="M460.78 157.068C451.551 177.225 446.362 196.296 453.158 204.799C453.557 205.296 453.998 205.758 454.475 206.18C459.712 210.795 470.009 210.898 487.395 204.028C533.661 185.743 535.859 154.182 545.217 123.361C554.442 92.9268 586.683 98.0709 587.49 98.2067C512.403 72.046 476.441 122.88 460.78 157.068Z" fill="url(#paint0_linear)"></path><path d="M453.159 204.807C453.558 205.304 453.998 205.766 454.476 206.187C463.166 200.952 479.796 189.841 487.656 177.376C491.355 171.501 494.467 164.87 497.766 157.872C504.004 144.632 510.441 130.94 521.695 120.439L520.44 119.088C508.929 129.835 502.412 143.688 496.104 157.09C492.834 164.04 489.748 170.605 486.097 176.388C478.446 188.552 461.632 199.703 453.159 204.807Z" fill="url(#paint1_linear)"></path><path d="M468.821 165.303C469.368 166.643 469.72 167.403 469.757 167.506C469.9 166.772 470.035 166.037 470.179 165.303C476.351 133.657 484.604 130.352 509.355 102.686C534.675 74.3737 520.107 48 520.107 48C435.314 72.4975 463.06 151.152 468.821 165.303Z" fill="url(#paint2_linear)"></path><path d="M468.82 165.303C469.366 166.643 469.719 167.403 469.755 167.506C469.898 166.772 470.034 166.037 470.177 165.303C467.429 137.945 483.924 105.844 489.109 100.083C494.47 94.12 497.773 85.9175 499.017 82.8259C499.226 82.3119 499.42 81.8235 499.486 81.7244L498.29 81.0488C498.184 81.2361 498.048 81.5775 497.743 82.3266C496.525 85.3557 493.277 93.393 488.078 99.1723C481.516 106.464 466.299 138.72 468.82 165.303Z" fill="url(#paint3_linear)"></path><path d="M230.721 475.849H281.963V320.125H230.721L230.721 475.849Z" fill="#8F8F8F"></path><path d="M57.6199 395.137L455.069 395.137C467.498 395.137 477.574 385.056 477.574 372.619L477.574 105.342C477.574 92.9057 467.498 82.8239 455.069 82.8239L57.6199 82.8239C45.1904 82.8239 35.1143 92.9057 35.1143 105.342L35.1143 372.619C35.1143 385.056 45.1904 395.137 57.6199 395.137Z" fill="#F0F0F0"></path><path d="M52.4417 346.198L460.246 346.198L460.246 49.588L52.4417 49.588L52.4417 346.198Z" fill="white"></path><path d="M52.4417 85.4127L460.246 85.4127V49.5881L52.4417 49.5881V85.4127Z" fill="url(#paint4_linear)"></path><path d="M410.617 368.592C410.617 376.478 418.129 382.874 427.398 382.874C436.668 382.874 444.179 376.478 444.179 368.592C444.179 360.705 436.668 354.312 427.398 354.312C418.129 354.312 410.617 360.705 410.617 368.592Z" fill="#CCCCCC"></path><path d="M371.601 469.97H141.078V481.723H371.601V469.97Z" fill="#CCCCCC"></path><path d="M122.771 60.7314H74.3329C71.6476 60.7314 69.4707 62.9096 69.4707 65.5964V69.404C69.4707 72.0908 71.6476 74.2689 74.3329 74.2689H122.771C125.457 74.2689 127.634 72.0908 127.634 69.404V65.5964C127.634 62.9096 125.457 60.7314 122.771 60.7314Z" fill="#F5F7FF"></path><path d="M295.823 210.235H82.3125V217.579H295.823V210.235Z" fill="#E6E6E6"></path><path d="M240.673 223.461H82.3125V230.804H240.673V223.461Z" fill="#E6E6E6"></path><path d="M182.723 252.199H82.3125V259.542H182.723V252.199Z" fill="#E6E6E6"></path><path d="M262.709 265.428H82.3125V272.771H262.709V265.428Z" fill="#E6E6E6"></path><path d="M251.308 297.027H82.3125V304.37H251.308V297.027Z" fill="#E6E6E6"></path><path d="M288.675 310.252H82.3125V317.595H288.675V310.252Z" fill="#E6E6E6"></path><path d="M77.2614 210.235H71.8965V230.804H77.2614V210.235Z" fill="#78C2FF"></path><path d="M77.2614 252.199H71.8965V272.768H77.2614V252.199Z" fill="#78C2FF"></path><path d="M77.2614 297.027H71.8965V317.595H77.2614V297.027Z" fill="#78C2FF"></path><path d="M366.737 297.434H349.636C346.238 297.434 343.482 300.191 343.482 303.592V320.702C343.482 324.102 346.238 326.859 349.636 326.859H366.737C370.135 326.859 372.89 324.102 372.89 320.702V303.592C372.89 300.191 370.135 297.434 366.737 297.434Z" fill="#78C2FF"></path><path d="M357.252 318.627L349.818 312.143C349.561 311.878 349.414 311.527 349.405 311.158C349.395 310.79 349.525 310.432 349.767 310.154C350.01 309.877 350.348 309.701 350.714 309.661C351.08 309.622 351.448 309.721 351.744 309.94L356.999 314.526L364.496 306.162C364.755 305.87 365.119 305.692 365.509 305.669C365.898 305.646 366.281 305.778 366.573 306.037C366.865 306.296 367.042 306.661 367.065 307.05C367.089 307.44 366.957 307.823 366.698 308.115L357.252 318.627Z" fill="#F3F3F3"></path><path d="M366.204 282.046H350.167C348.391 282.044 346.688 281.337 345.431 280.08C344.175 278.823 343.469 277.119 343.467 275.342V259.315C343.469 257.537 344.175 255.832 345.431 254.575C346.687 253.317 348.391 252.609 350.167 252.606H366.204C367.98 252.609 369.684 253.317 370.94 254.575C372.196 255.832 372.902 257.537 372.904 259.315V275.356C372.898 277.131 372.19 278.832 370.934 280.085C369.679 281.339 367.978 282.044 366.204 282.046ZM350.167 254.461C349.532 254.462 348.902 254.588 348.315 254.832C347.728 255.077 347.195 255.435 346.746 255.886C346.297 256.336 345.941 256.871 345.699 257.46C345.457 258.048 345.333 258.678 345.335 259.315V275.356C345.337 276.638 345.846 277.867 346.752 278.773C347.658 279.68 348.886 280.19 350.167 280.192H366.204C367.485 280.19 368.713 279.68 369.619 278.773C370.525 277.867 371.034 276.638 371.036 275.356V259.315C371.035 258.032 370.526 256.802 369.62 255.895C368.714 254.988 367.485 254.477 366.204 254.475L350.167 254.461Z" fill="#78C2FF"></path><path d="M410.481 326.874H394.448C392.671 326.873 390.966 326.166 389.709 324.908C388.452 323.65 387.745 321.944 387.744 320.166V304.128C387.746 302.349 388.453 300.644 389.71 299.386C390.967 298.129 392.671 297.421 394.448 297.42H410.481C412.258 297.422 413.961 298.13 415.217 299.388C416.473 300.645 417.18 302.35 417.182 304.128V320.166C417.181 321.944 416.474 323.649 415.218 324.907C413.962 326.164 412.258 326.872 410.481 326.874ZM394.448 299.288C393.166 299.289 391.936 299.8 391.03 300.707C390.123 301.614 389.613 302.845 389.612 304.128V320.166C389.613 321.449 390.123 322.679 391.03 323.586C391.936 324.494 393.166 325.004 394.448 325.005H410.481C411.763 325.003 412.991 324.492 413.897 323.585C414.803 322.678 415.313 321.448 415.314 320.166V304.128C415.313 302.845 414.803 301.615 413.897 300.708C412.991 299.801 411.763 299.29 410.481 299.288H394.448Z" fill="#78C2FF"></path><path d="M411.014 252.606H393.914C390.515 252.606 387.76 255.363 387.76 258.764V275.874C387.76 279.275 390.515 282.031 393.914 282.031H411.014C414.413 282.031 417.168 279.275 417.168 275.874V258.764C417.168 255.363 414.413 252.606 411.014 252.606Z" fill="#78C2FF"></path><path d="M401.529 273.799L394.095 267.315C393.839 267.05 393.691 266.699 393.682 266.331C393.673 265.962 393.802 265.604 394.045 265.327C394.287 265.049 394.625 264.873 394.991 264.834C395.357 264.794 395.725 264.893 396.021 265.112L401.276 269.702L408.773 261.334C409.039 261.074 409.394 260.925 409.766 260.917C410.138 260.909 410.499 261.042 410.777 261.29C411.054 261.538 411.227 261.883 411.26 262.253C411.294 262.624 411.185 262.994 410.957 263.287L401.529 273.799Z" fill="#F3F3F3"></path><path d="M410.481 237.218H394.448C392.671 237.217 390.967 236.511 389.71 235.254C388.453 233.997 387.746 232.292 387.744 230.514V214.472C387.746 212.694 388.453 210.989 389.71 209.731C390.967 208.473 392.671 207.766 394.448 207.764H410.481C412.258 207.767 413.961 208.475 415.217 209.732C416.473 210.99 417.18 212.694 417.182 214.472V230.514C417.18 232.291 416.473 233.996 415.217 235.253C413.961 236.51 412.257 237.216 410.481 237.218ZM394.448 209.633C393.166 209.634 391.936 210.144 391.03 211.052C390.123 211.959 389.613 213.189 389.612 214.472V230.514C389.614 231.797 390.124 233.027 391.031 233.934C391.937 234.841 393.166 235.351 394.448 235.353H410.481C411.762 235.35 412.991 234.839 413.896 233.932C414.802 233.025 415.312 231.796 415.314 230.514V214.472C415.313 213.19 414.803 211.96 413.897 211.053C412.991 210.146 411.763 209.635 410.481 209.633H394.448Z" fill="#78C2FF"></path><path d="M366.737 207.779H349.636C346.238 207.779 343.482 210.536 343.482 213.936V231.046C343.482 234.447 346.238 237.204 349.636 237.204H366.737C370.135 237.204 372.89 234.447 372.89 231.046V213.936C372.89 210.536 370.135 207.779 366.737 207.779Z" fill="#78C2FF"></path><path d="M357.252 228.972L349.818 222.488C349.561 222.223 349.414 221.872 349.405 221.503C349.395 221.135 349.525 220.777 349.767 220.499C350.01 220.222 350.348 220.046 350.714 220.006C351.08 219.966 351.448 220.066 351.744 220.285L356.999 224.871L364.496 216.503C364.624 216.358 364.78 216.24 364.954 216.156C365.128 216.072 365.317 216.022 365.51 216.011C365.703 215.999 365.896 216.026 366.079 216.089C366.262 216.153 366.43 216.252 366.575 216.38C366.719 216.509 366.837 216.664 366.922 216.838C367.006 217.012 367.055 217.201 367.067 217.395C367.078 217.588 367.051 217.781 366.988 217.964C366.925 218.147 366.826 218.315 366.698 218.46L357.252 228.972Z" fill="#F3F3F3"></path><path d="M224.115 396.225C224.115 396.225 225.183 397.972 225.318 399.401C225.421 400.532 226.372 402.221 226.786 403.153C227.201 404.086 228.522 408.294 228.57 409.395C228.57 409.847 227.586 412.678 227.729 413.584C227.873 414.491 228.39 416.283 227.575 416.404C226.761 416.525 225.843 415.053 225.843 415.053C225.864 415.284 225.817 415.515 225.708 415.719C225.599 415.923 225.433 416.091 225.23 416.202C223.895 416.823 223.186 416.279 223.186 416.279C223.186 416.279 222.691 417.194 222.086 417.318C220.72 417.59 220.053 417.043 220.053 417.043C219.608 417.378 219.064 417.553 218.508 417.539C218.154 417.527 217.809 417.422 217.509 417.236C217.208 417.049 216.962 416.786 216.794 416.474C216.794 416.474 215.264 416.782 214.82 416.07C214.376 415.358 214.453 414.601 214.273 413.948C214.093 413.294 214.225 407.464 216.211 403.256C218.196 399.048 215.704 394.954 215.704 394.954L224.115 396.225Z" fill="#EEA886"></path><path d="M226.051 414.517C226.051 414.517 226.187 409.278 224.811 408.161C223.435 407.045 223.274 408.936 223.274 408.936C223.274 408.936 223.461 407.067 221.956 406.814C220.452 406.56 220.386 408.782 220.386 408.782C220.348 408.582 220.27 408.392 220.155 408.224C220.041 408.056 219.892 407.913 219.72 407.806C219.547 407.698 219.354 407.627 219.153 407.598C218.952 407.569 218.747 407.582 218.551 407.636C216.969 407.934 217.347 409.773 217.347 409.773C217.347 409.773 215.835 407.97 214.856 409.703C213.201 412.641 214.793 416.081 214.793 416.081C214.793 416.081 215.263 416.871 216.767 416.485C216.767 416.485 217.773 418.516 220.026 417.054C220.026 417.054 222.334 418.325 223.174 416.29C223.182 416.29 225.706 417.498 226.051 414.517Z" fill="#DB9C7C"></path><path d="M241.879 320.749C241.879 320.749 232.914 350.644 229.887 361.67C228.936 365.129 226.639 398.152 226.217 399.489C225.795 400.825 214.441 402.643 214.441 402.643C214.441 402.643 215.817 361.329 215.946 359.074C216.074 356.82 228.492 310.685 232.092 309.037C234.797 307.807 236.228 308.824 239.637 311.357C244.444 314.904 241.879 320.749 241.879 320.749Z" fill="#323657"></path><path d="M349.812 265.495L329.295 278.929L330.292 280.453L350.809 267.019L349.812 265.495Z" fill="#4DA8F2"></path><path d="M352.995 273.164C352.908 273.731 352.73 274.281 352.467 274.791C352.467 274.791 351.795 275.595 351.366 276.193C351.25 276.346 351.143 276.505 351.047 276.671C350.625 277.633 350.052 278.521 349.352 279.303C348.375 280.298 344.581 283.449 344.581 283.449L341.323 280.68L337.936 279.164C337.936 279.164 339.833 270.917 340.636 269.889C340.711 269.79 340.792 269.696 340.879 269.606C341.645 268.802 342.552 268.505 343.003 268.138C343.168 267.998 344.908 266.742 345.532 266.904C345.882 266.971 346.209 267.126 346.482 267.355C346.756 267.584 346.967 267.878 347.095 268.211C347.095 268.211 348.764 268.725 349.414 269.702C349.414 269.702 350.966 270.128 351.429 271.574C351.399 271.585 352.929 272.195 352.995 273.164Z" fill="#EFAA88"></path><path d="M234.606 524.851C234.606 524.851 233.788 530.527 233.685 531.379C233.582 532.231 224.595 530.876 224.595 530.876L223.861 524.12C223.861 524.12 233.483 524.043 234.606 524.851Z" fill="#424773"></path><path d="M233.778 530.652C233.778 530.652 236.626 534.074 239.382 535.565C242.138 537.056 246.464 537.643 248.094 539.189C249.268 540.29 252.376 545.097 240.934 544.997C229.492 544.898 223.981 545.677 222.755 543.837C221.529 541.998 224.531 530.252 224.531 530.252C224.531 530.252 227.239 531.247 233.778 530.652Z" fill="#292C47"></path><path d="M299.004 524.851C299.004 524.851 298.186 530.527 298.083 531.379C297.981 532.231 288.994 530.876 288.994 530.876L288.26 524.12C288.26 524.12 297.878 524.043 299.004 524.851Z" fill="#424773"></path><path d="M298.175 530.652C298.175 530.652 301.023 534.074 303.779 535.565C306.535 537.056 316.666 538.278 318.296 539.82C319.47 540.922 321.426 545.42 305.331 544.997C293.896 544.7 288.377 545.677 287.152 543.837C285.926 541.998 288.924 530.252 288.924 530.252C288.924 530.252 291.478 531.313 298.175 530.652Z" fill="#292C47"></path><path d="M242.047 379.034C242.047 379.034 233.607 392.461 234.231 404.596C234.855 416.731 231.17 429.978 229.901 442.656C228.488 456.789 222.701 490.245 222.488 497.805C222.275 505.365 223.387 529.503 223.387 529.503L234.972 529.767C234.972 529.767 244.704 471.277 247.225 465.311C249.746 459.344 262.241 416.793 262.663 412.02C263.085 407.247 242.047 379.034 242.047 379.034Z" fill="#292C47"></path><path d="M286.501 380.848C286.501 380.848 292.868 414.106 293.708 421.534C294.548 428.962 295.106 457.48 295.543 462.121C295.98 466.762 299.466 522.733 300.566 529.768H285.756C285.756 529.768 274.38 488.986 274.38 469.688C274.38 450.389 265.595 427.735 259.926 415.005C254.256 402.276 241.277 401.971 237.791 378.347C237.817 378.347 281.786 373.361 286.501 380.848Z" fill="#292C47"></path><path d="M256.139 266.166C256.139 266.166 267.474 261.933 272.7 270.572C277.925 279.212 277.422 296.491 271.709 298.616C265.995 300.742 257.416 299.63 254.488 294.21C251.559 288.791 248.924 280.992 249.049 275.782C249.174 270.572 253.163 267.675 256.139 266.166Z" fill="#EEA886"></path><path d="M270.479 299.002C270.479 299.002 270.01 302.064 270.788 303.573C271.566 305.082 256.109 305.119 256.109 305.119C256.109 305.119 254.854 296.916 252.473 289.984C250.091 283.052 270.479 299.002 270.479 299.002Z" fill="#EEA886"></path><path d="M252.466 289.984C252.466 289.984 253.534 291.747 257.893 291.064C262.252 290.381 267.562 284.58 269.383 283.941C271.203 283.302 271.217 282.237 271.217 282.237L272.355 283.9L274.285 284.021C274.285 284.021 272.524 278.833 275.184 276.718C277.845 274.604 272.425 259.924 258.451 264.811C258.451 264.811 247.721 267.771 248.11 273.88C248.499 279.99 250.066 286.944 252.466 289.984Z" fill="#D88A51"></path><path d="M271.704 303.393C271.704 303.393 271.656 300.511 270.35 300.232C269.044 299.953 255.94 298.697 254.336 299.325V302.685C254.336 302.685 257.426 304.587 271.704 303.393Z" fill="#E2D2CA"></path><path d="M270.932 280.016C270.686 278.991 268.084 276.061 267.086 279.197C266.088 282.333 268.595 286.54 269.989 286.173C271.383 285.806 271.552 282.612 270.932 280.016Z" fill="#EEA886"></path><path d="M293.38 307.755C284.396 306.569 271.703 303.39 271.703 303.39L254.335 302.685C254.335 302.685 238.395 306.195 232.116 309.029C231.521 309.301 231.518 323.261 229.885 326.921L235.088 337.907C235.088 337.907 238.097 359.673 238.721 369.351C239.007 373.794 232.52 411.018 232.52 411.018C232.52 411.018 239.47 413.066 251.322 414.374C263.175 415.681 292.789 413.9 292.983 412.497C293.178 411.095 287.248 360.334 286.987 357.716C286.587 353.677 288.378 332.238 288.378 332.238C291.115 330.116 315.166 318.954 321.701 313.145C323.455 311.588 330.875 304.374 332.967 301.884C340.42 293.072 346.544 285.497 347.278 283.867C348.122 282.938 338.989 278.011 338.178 277.743C337.466 277.504 327.58 290.63 323.705 294.835C321.973 296.707 314.784 301.939 314.784 301.939C314.784 301.939 299.001 308.078 293.38 307.755Z" fill="#323657"></path><path d="M252.912 267.187C252.912 267.187 238.461 268.318 252.468 289.984L252.912 267.187Z" fill="#D88A51"></path><path d="M350.813 266.963L351.998 265.153L349.814 265.439L350.813 266.963Z" fill="#DFE1E8"></path><path d="M61.4446 370.985C61.4446 370.985 68.4755 371.411 70.4461 372.509C72.4167 373.607 85.7078 369.41 85.9537 368.444C86.1996 367.479 85.9537 367.001 85.9537 367.001H59.8594L61.4446 370.985Z" fill="#DE9673"></path><path d="M29.8811 339.963C29.8811 339.963 27.639 357.587 29.8811 359.908C38.4495 368.72 70.2061 368.037 70.2061 368.037V371.628C70.2061 371.628 21.9328 377.653 17.4485 368.283C12.0579 357.029 14.1459 338.671 14.1459 338.671L29.8811 339.963Z" fill="#DE9673"></path><path d="M13.9499 525.809L16.8159 522.538L11.6381 517.118L7.26758 520.184L13.9499 525.809Z" fill="#2F4563"></path><path d="M7.26841 520.184C7.26841 520.184 13.1764 524.638 14.8204 524.814C16.4644 524.99 17.2387 525.728 17.0442 528.233C16.8497 530.737 19.4441 541.289 21.2532 541.451C23.0623 541.612 29.2198 541.653 30.3391 545.717C31.4583 549.782 10.7985 548.926 9.51786 545.596C8.23718 542.266 -0.65421 526.11 0.39896 524.811C1.45213 523.511 4.23733 520.599 7.26841 520.184Z" fill="#1E2D40"></path><path d="M45.1638 393.959C45.1638 393.959 83.7605 461.235 68.0951 475.155C61.9485 480.611 56.0331 485.549 47.5454 492.852C43.0245 496.737 37.5678 501.235 31.0983 507.972L30.8304 508.255C26.2178 513.065 22.3904 517.133 21.2381 518.389C21.1985 518.425 21.1617 518.464 21.1281 518.506L20.996 518.646L16.6989 522.747L10.3945 517.203C10.3945 517.203 17.5429 507.311 21.5684 499.715C27.2232 489.067 36.7275 476.517 41.1199 473.018C48.6499 467.029 50.7233 465.854 50.7233 460.126C50.7233 453.984 15.3448 419.668 15.3448 419.668C15.3448 419.668 10.2074 398.189 22.4711 392.571C34.4193 387.089 45.1638 393.959 45.1638 393.959Z" fill="#23344A"></path><path d="M15.7441 536.23C15.7441 536.23 15.4982 533.131 16.0193 531.148C16.5404 529.166 8.03062 530.307 8.03062 530.307C8.03062 530.307 6.92975 538.58 7.25267 540.474C7.5756 542.369 15.7441 536.23 15.7441 536.23Z" fill="#41608A"></path><path d="M17.3328 531.159L5.85064 533.222C5.85064 533.222 5.025 518.565 5.17178 507.337C5.33324 495.265 4.72775 485.777 8.41201 476.168C11.8577 467.18 11.0725 463.758 11.3734 457.622C11.6743 451.487 8.4377 419.896 8.4377 419.896C8.4377 419.896 4.51491 405.752 13.5935 395.773C22.4408 386.05 45.3207 395.732 45.3207 395.732C45.3207 395.732 40.5502 438.889 29.1121 465.586C25.8719 473.143 27.6223 477.732 23.4903 489.405C23.483 489.412 17.208 514.864 17.3328 531.159Z" fill="#2F4563"></path><path d="M27.3264 310.406C26.6936 311.564 26.2348 312.809 25.965 314.1C25.6777 315.407 25.4718 316.73 25.3485 318.062C25.1801 319.728 25.1029 321.403 25.1173 323.078C25.1173 323.078 9.80416 319.744 12.3178 316.171C14.8315 312.598 13.349 301.767 13.349 301.767C13.349 301.767 29.3117 307.065 27.3264 310.406Z" fill="#EEA987"></path><path d="M35.9431 280.893C35.9431 280.893 39.8622 284.297 38.1118 294.111C38.1118 294.111 38.9778 301.928 40.1741 303.29C41.3704 304.653 36.9633 305.159 36.5046 306.14C36.0459 307.12 35.1652 311.717 32.1011 314.485C29.037 317.254 13.8192 308.908 13.078 304.205C12.3367 299.501 1.7977 279.274 18.4796 278.349C35.1615 277.424 35.9431 280.893 35.9431 280.893Z" fill="#EEA886"></path><path d="M46.4361 353.31C46.1278 354.294 47.2948 369.392 47.17 370.695C46.5865 377.837 48.4323 388.686 49.1552 392.578C49.3277 393.496 49.4231 393.966 49.4231 393.966C32.888 402.044 9.89076 401.35 9.89076 401.35C9.97149 400.722 13.1934 392.949 13.2631 392.354C14.6245 382.639 16.6354 378.204 16.0887 371.635C15.7841 367.945 14.8447 364.086 12.8998 359.306C7.28169 345.5 7.58993 336.31 8.49632 328.724C9.40271 321.139 11.6852 316.813 11.6852 316.813L25.6553 318.315C28.6203 321.601 31.2587 323.353 39.6877 330.839C48.6819 338.799 50.2524 341.215 46.4361 353.31Z" fill="#FFC05C"></path><path d="M6.73789 538.326C6.73789 538.326 14.811 536.028 15.0568 535.8C15.3027 535.572 15.3504 535.088 16.466 535.532C17.5815 535.976 18.0402 537.669 19.1337 538.205C20.2273 538.741 26.8986 540.691 30.5498 542.49C31.8709 543.14 37.456 545.269 38.2559 547.05C39.0559 548.831 38.8101 551.507 29.2104 550.872C19.6108 550.237 9.11213 551.607 7.00946 550.542C4.90679 549.477 6.18745 541.106 6.73789 538.326Z" fill="#23344A"></path><path d="M38.529 290.583C38.529 290.583 40.4041 270.205 20.6581 273.844C0.912087 277.482 11.0879 299.755 13.7483 307.014C13.7483 307.014 13.4254 295.742 22.9223 295.374C32.4191 295.007 34.4044 292.804 38.529 290.583Z" fill="#464240"></path><path d="M21.3875 292.51C20.1986 290.443 16.1217 291.545 16.5877 294.713C17.0537 297.882 20.3197 301.01 21.4059 299.487C22.4921 297.963 23.1453 295.551 21.3875 292.51Z" fill="#EEA987"></path><path d="M21.842 332.546C21.842 332.546 20.2127 350.005 22.4548 352.315C31.0233 361.127 64.8312 361.314 64.8312 361.314L66.4458 366.388C66.4458 366.388 16.1945 369.814 11.7103 360.448C6.31963 349.19 8.40763 330.832 8.40763 330.832L21.842 332.546Z" fill="#EEA987"></path><path d="M14.3988 278.859C14.3988 278.859 6.7954 271.56 1.38643 279.828C-4.02254 288.097 7.81188 299.63 12.6044 292.786C17.3968 285.942 14.3988 278.859 14.3988 278.859Z" fill="#464240"></path><path d="M25.9649 314.1C25.6776 315.406 25.4717 316.73 25.3484 318.062C20.2587 315.741 16.457 308.651 16.457 308.651C20.1266 311.831 25.9759 314.118 25.9759 314.118L25.9649 314.1Z" fill="#A77860"></path><path d="M98.6589 366.388H50.7305V369.065H98.6589V366.388Z" fill="#6E6760"></path><path d="M117.851 324.999L96.2637 367.815L98.6521 369.02L120.24 326.204L117.851 324.999Z" fill="#6E6760"></path><path d="M57.7718 361.314C57.7718 361.314 64.8027 360.774 66.7733 359.379C68.7439 357.984 82.0388 363.319 82.2846 364.552C82.5305 365.786 82.2846 366.388 82.2846 366.388H56.1719L57.7718 361.314Z" fill="#EEA987"></path><path d="M11.7148 316.806L12.6983 314.133L26.118 316.806V319.185L11.7148 316.806Z" fill="#FFC05C"></path><path d="M21.8186 332.778C21.8186 332.778 23.257 322.659 16.2188 321.763C9.18052 320.867 8.40625 330.861 8.40625 330.861L21.8186 332.778Z" fill="#EEA987"></path><path d="M480.486 523.537C480.486 523.537 481.301 529.264 481.404 530.124C481.506 530.983 490.493 529.617 490.493 529.617L491.227 522.799C491.227 522.799 481.609 522.729 480.486 523.537Z" fill="#5C544D"></path><path d="M481.304 529.397C481.304 529.397 478.456 532.848 475.704 534.353C472.952 535.859 468.622 536.454 466.996 538.025C465.818 539.149 462.714 543.988 474.152 543.9C485.59 543.812 491.102 544.586 492.328 542.728C493.553 540.871 490.555 529.033 490.555 529.033C490.555 529.033 487.847 529.991 481.304 529.397Z" fill="#3C4145"></path><path d="M416.096 523.537C416.096 523.537 416.914 529.264 417.017 530.124C417.12 530.983 426.103 529.617 426.103 529.617L426.837 522.799C426.837 522.799 417.219 522.729 416.096 523.537Z" fill="#5C544D"></path><path d="M416.919 529.397C416.919 529.397 414.072 532.848 411.316 534.354C408.56 535.859 398.428 537.093 396.803 538.649C395.625 539.773 393.672 544.3 409.764 543.874C421.194 543.577 426.713 544.561 427.939 542.703C429.165 540.845 426.167 529.008 426.167 529.008C426.167 529.008 423.613 530.058 416.919 529.397Z" fill="#3C4145"></path><path d="M477.288 375.652C477.288 375.652 482.059 389.865 481.442 402.114C480.826 414.362 483.916 427.768 485.182 440.564C486.598 454.832 492.385 488.604 492.594 496.234C492.803 503.863 491.695 528.229 491.695 528.229L480.11 528.497C480.11 528.497 470.382 469.456 467.865 463.431C465.348 457.406 452.849 414.458 452.427 409.641C452.005 404.823 477.288 375.652 477.288 375.652Z" fill="#33373B"></path><path d="M428.596 378.182C428.596 378.182 422.233 411.756 421.393 419.254C420.552 426.751 419.991 455.533 419.558 460.219C419.125 464.904 416.758 521.536 414.52 528.512H429.326C429.326 528.512 440.702 487.345 440.702 467.867C440.702 448.388 449.483 425.521 455.153 412.667C460.822 399.812 473.798 399.511 477.284 375.667C477.291 375.652 433.311 370.618 428.596 378.182Z" fill="#3C4145"></path><path d="M458.689 263.441C458.689 263.441 447.016 259.079 441.633 267.969C436.249 276.858 436.77 294.662 442.653 296.85C448.535 299.039 457.379 297.893 460.388 292.33C463.397 286.768 466.124 278.723 465.992 273.348C465.86 267.972 461.753 264.991 458.689 263.441Z" fill="#EEA886"></path><path d="M444.614 296.303C444.614 296.303 445.088 299.366 444.306 300.875C443.524 302.384 458.984 302.42 458.984 302.42C458.984 302.42 460.239 294.218 462.617 287.286C464.995 280.354 444.614 296.303 444.614 296.303Z" fill="#EEA886"></path><path d="M462.622 287.286C462.622 287.286 461.554 289.048 457.199 288.365C452.843 287.682 447.529 281.881 445.709 281.246C443.889 280.61 443.874 279.538 443.874 279.538L442.737 281.202L440.803 281.326C440.803 281.326 442.564 276.138 439.908 274.023C437.251 271.909 442.667 257.233 456.637 262.116C456.637 262.116 467.367 265.076 466.978 271.182C466.589 277.288 465.026 284.245 462.622 287.286Z" fill="#FCCCA2"></path><path d="M443.387 300.691C443.387 300.691 443.438 297.809 444.741 297.533C446.044 297.258 459.151 295.995 460.755 296.626V299.982C460.755 299.982 457.665 301.884 443.387 300.691Z" fill="#E2D2CA"></path><path d="M444.165 277.306C444.407 276.282 447.009 273.355 448.007 276.491C449.005 279.627 446.503 283.834 445.104 283.467C443.706 283.1 443.545 279.913 444.165 277.306Z" fill="#EEA886"></path><path d="M443.386 300.691C443.386 300.691 436.205 303.261 427.882 306.812C427.882 306.812 418.312 310.388 417.277 320.966C416.727 326.58 410.753 356.376 409.63 358.895C408.507 361.413 395.263 401.916 394.797 402.757C394.331 403.597 405.608 408.264 406.356 407.897C407.105 407.53 419.2 370.96 420.396 368.243C420.396 368.243 427.368 346.319 427.537 343.048C427.537 343.048 427.735 352.366 428.11 354.981C428.484 357.595 421.926 408.363 422.11 409.762C422.293 411.161 451.911 412.942 463.763 411.635C470.993 410.827 478.152 409.477 485.179 407.596C485.179 407.596 475.855 367.53 476.141 363.088C476.765 353.409 479.998 335.183 479.998 335.183L489.66 353.413L477.289 385.257L480.122 394.936C480.122 394.936 503.109 360.18 503.857 357.004C504.606 353.828 502.731 349.785 501.516 347.171C500.301 344.557 492.342 324.656 490.467 321.855C488.592 319.053 485.447 307.836 477.825 304.715C471.451 302.105 460.754 299.964 460.754 299.964L443.386 300.691Z" fill="#254380"></path><path d="M437.29 383.296L383.139 369.405L373.453 407.205L427.604 421.096L437.29 383.296Z" fill="#D6D6D6"></path><path d="M390.082 411.021C390.082 411.021 388.533 413.526 387.968 414.238C387.403 414.95 389.359 415.398 390.196 414.678C391.032 413.959 390.082 411.021 390.082 411.021Z" fill="#C98462"></path><path d="M401.358 419.569C401.358 419.569 402.272 418.615 402.459 418.001C402.459 418.001 402.731 416.863 402.973 416.063C403.032 415.856 403.103 415.652 403.186 415.453C403.446 414.881 404.188 413.706 404.426 412.149C404.665 410.592 405.34 403.675 405.34 403.675L401.145 402.617L397.773 401.905C397.773 401.905 390.493 409.171 390.104 410.585C390.066 410.719 390.037 410.855 390.016 410.992C389.803 412.222 390.159 413.225 390.122 413.882C390.122 414.124 390.144 416.533 390.705 416.984C391 417.256 391.358 417.448 391.748 417.542C392.137 417.635 392.544 417.628 392.929 417.521C392.929 417.521 394.507 418.681 395.825 418.622C395.825 418.622 397.245 419.724 398.859 419.187C398.87 419.187 400.437 420.157 401.358 419.569Z" fill="#DE9D7D"></path><path d="M417.732 375.729C417.732 375.729 408.121 404.853 406.356 407.908C406.356 407.908 399.307 406.439 394.797 402.767L405.351 371.338L417.732 375.729Z" fill="#254380"></path><path d="M623.123 410.496C623.123 410.496 622.734 403.792 620.958 402.749C619.182 401.707 620.224 403.785 620.224 403.785C620.224 403.785 621.222 408.65 621.442 410.625C621.453 410.717 623.123 410.496 623.123 410.496Z" fill="#1D3B54"></path><path d="M575.904 269.456C575.904 269.456 592.571 268.068 592.116 285.611C591.661 303.155 588.88 305.806 592.116 318.187C595.353 330.568 575.867 311.148 575.867 311.148L575.904 269.456Z" fill="#434343"></path><path d="M561.884 316.857C561.884 316.857 538.274 331.595 536.278 330.028C533.485 327.825 525.9 309.136 525.9 309.136L519.959 311.967C519.959 311.967 527.045 344.299 536.59 341.92C546.134 339.541 568.056 325.974 568.056 325.974L561.884 316.857Z" fill="#EEA987"></path><path d="M594.064 377.859C594.064 377.859 600.204 385.687 602.369 390.864C604.534 396.041 608.145 407.387 607.664 416.199C607.183 425.011 604.295 441.486 605.135 445.205C605.976 448.924 606.82 456.642 607.723 459.29C608.625 461.937 612.236 469.647 612.599 477.593C612.963 485.539 607.543 520.46 607.785 523.713C608.027 526.966 601.646 525.035 601.646 525.035C601.646 525.035 599.481 493.488 598.277 488.068C597.073 482.649 595.631 464.228 594.545 462.903C593.459 461.577 590.509 447.849 590.96 445.686C591.411 443.523 579.144 411.007 578.421 404.504C577.698 398.002 559.6 377.863 559.6 377.863C559.6 377.863 575.419 371.808 594.064 377.859Z" fill="#EEA987"></path><path d="M564.776 377.859C564.776 377.859 564.464 381.141 564.1 382.345C563.737 383.55 555.436 414.252 554.596 426.038C553.756 437.825 551.587 447.848 551.224 450.371C550.861 452.893 551.591 461.32 552.325 463.486C553.059 465.652 548.717 516.828 548.354 518.033C547.991 519.237 551.242 519.6 553.528 519.237C555.814 518.873 567.344 481.683 566.61 475.423C565.876 469.162 565.165 455.809 567.212 450.385C569.26 444.962 587.67 405.705 587.791 403.296C587.912 400.887 595.773 359.405 564.776 377.859Z" fill="#EEA987"></path><path d="M601.758 521.194C601.758 521.194 601.167 525.35 600.518 526.485C599.868 527.619 598.092 533.395 597.281 534.474C596.47 535.554 594.691 543.654 597.281 544.623C599.872 545.592 605.967 547.215 608.018 543.977C609.724 541.32 610.432 538.144 610.015 535.014C609.692 532.528 607.23 521.132 607.263 520.004C607.296 518.877 601.758 521.194 601.758 521.194Z" fill="#EEA987"></path><path d="M598.317 532.231C598.317 532.231 598.038 538.524 602.786 538.524C607.535 538.524 609.638 532.797 609.638 532.797C609.638 532.797 611.256 535.609 609.638 541.609C608.019 547.608 601.275 546.36 599.763 546.143C598.251 545.927 591.091 544.025 598.317 532.231Z" fill="#EB4747"></path><path d="M548.846 515.543C548.846 515.543 545.488 521.55 543.495 522.766C541.011 524.282 536.193 529.147 534.509 529.375C532.824 529.602 526.77 530.671 527.94 534.093C528.898 536.894 543.352 536.49 544.963 535.088C546.574 533.685 551.462 528.644 553.425 528.754C555.389 528.864 554.662 536.024 554.662 536.024H556.794C556.794 536.024 557.528 529.048 557.631 527.862C557.895 524.319 555.37 521.712 555.256 519.692C555.143 517.673 555.029 516.16 555.029 516.16L548.846 515.543Z" fill="#EB4747"></path><path d="M534.988 529.209C534.988 529.209 539.759 530.854 543.428 528.747C547.098 526.639 554.122 523.441 556.606 523.419C556.606 523.419 555.252 519.274 555.222 518.807C555.193 518.341 555.046 516.16 555.046 516.16L548.9 515.172C548.9 515.172 544.915 521.047 543.157 522.409C541.399 523.772 536.885 527.227 534.988 529.209Z" fill="#EEA987"></path><path d="M559.496 377.315C559.496 377.315 557.782 384.45 557.147 386.528C556.512 388.606 552.461 420.829 551.463 440.986C551.463 440.986 575.741 450.195 609.138 448.66C609.138 448.66 609.949 411.635 606.881 401.159C603.813 390.684 598.257 380.881 594.063 377.859C590.335 375.171 559.496 377.315 559.496 377.315Z" fill="#FFC05C"></path><path d="M614.926 395.399C614.577 397.393 614.107 399.365 613.517 401.303C612.607 404.203 611.77 405.129 612.134 406.788C612.409 408.044 613.829 408.991 614.185 408.58C614.541 408.169 614.717 403.304 616.754 403.326C618.79 403.348 616.152 409.366 617.352 408.921C618.552 408.477 623.179 405.944 622.889 403.487C622.6 401.031 620.746 399.254 620.867 395.586C620.974 392.256 619.939 390.864 619.939 390.864L614.926 395.399Z" fill="#EEA987"></path><path d="M518.355 310.528C518.355 310.528 521.174 314.199 522.909 314.566C524.645 314.934 526.535 310.814 526.535 310.814L525.511 307.087L518.355 310.528Z" fill="#EEA886"></path><path d="M525.313 309.301C525.313 309.301 526.66 305.075 526.847 304.425C527.034 303.775 526.374 301.855 525.174 300.037C524.224 298.559 523.176 297.147 522.036 295.811C521.768 295.547 521.621 295.246 520.741 295.642C520.177 295.921 519.694 296.339 519.339 296.858C519.339 296.858 518.025 296.858 517.453 297.897C517.07 297.928 516.704 298.074 516.404 298.313C516.103 298.553 515.881 298.878 515.765 299.244C515.765 299.244 514.557 299.31 514.297 300.291C514.572 301.116 514.774 301.964 514.902 302.824C514.924 303.559 516.392 307.23 518.341 310.535C518.355 310.527 521.254 313.024 525.313 309.301Z" fill="#EEA886"></path><path d="M522.209 303.816C522.209 303.816 520.741 305.505 520.587 306.184C520.433 306.863 516.184 304.348 516.184 304.348C516.184 304.348 520.121 302.101 522.209 303.816Z" fill="#CF8C6C"></path><path d="M522.257 296.237C522.257 296.237 524.606 301.216 523.82 301.646C523.625 301.774 523.4 301.852 523.166 301.871C522.933 301.89 522.699 301.85 522.485 301.756L522.36 304.253C522.36 304.253 521.343 305.857 519.894 304.282C519.894 304.282 519.101 305.883 517.879 304.194C517.879 304.194 516.889 305.016 516.184 304.333C515.479 303.65 514.312 300.294 514.312 300.294C514.312 300.294 514.382 299.472 515.78 299.248C515.893 298.879 516.114 298.553 516.415 298.312C516.717 298.072 517.084 297.928 517.468 297.901C517.468 297.901 518.202 296.59 519.67 296.531C519.946 296.179 520.325 295.922 520.753 295.794C521.181 295.666 521.639 295.673 522.063 295.815C522.139 295.95 522.204 296.091 522.257 296.237Z" fill="#DB9C7C"></path><path d="M526.799 304.256C526.799 304.256 523.952 301.752 521.798 301.069C521.31 300.915 520.811 300.853 520.481 301.246C520.15 301.638 520.312 302.619 521.49 303.764C522.668 304.91 523.666 306.937 523.666 306.937C523.666 306.937 525.222 307.759 526.799 304.256Z" fill="#EEA886"></path><path d="M519.641 296.527C519.641 296.527 522.547 301.7 522.514 302.31C522.481 302.919 524.418 301.88 524.411 301.363C524.404 300.845 522.305 296.222 522.033 295.811C521.762 295.4 520.165 295.073 519.641 296.527Z" fill="#EEA886"></path><path d="M522.632 296.806C522.632 296.806 518.001 288.16 517.318 288.475C516.327 288.934 516.584 291.328 520.5 297.783C524.298 304.058 522.632 296.806 522.632 296.806Z" fill="#EEA886"></path><path d="M560.617 334.779L551.076 322.123C551.076 322.123 568.118 308.904 573.376 317.313C573.383 317.327 573.758 331.151 560.617 334.779Z" fill="#323657"></path><path d="M554.897 334.331C555.165 338.576 557.333 342.097 557.693 343.631C558.053 345.166 557.693 348.687 558.144 352.212C558.596 355.737 559.95 372.531 559.498 377.316C559.047 382.1 592.334 379.941 594.859 378.498C594.859 378.498 589.252 368.467 589.101 364.314C589.05 362.886 588.202 358.439 590.547 355.19C591.784 353.475 594.081 348.012 596.378 344.021C597.266 342.471 598.213 340.925 598.848 339.776C599.407 338.735 599.85 337.635 600.169 336.497C600.169 336.497 601.636 318.073 597.6 315.998C593.563 313.924 591.361 313.56 587.402 313.377C585.169 313.303 582.953 312.971 580.797 312.385L571.498 313.377C571.498 313.377 565.542 315.455 563.194 315.635C560.845 315.815 557.869 320.874 558.141 324.124C558.412 327.373 554.625 330.087 554.897 334.331Z" fill="#323657"></path><path d="M616.537 403.124C616.537 403.124 613.847 403.81 614.009 412.909L617.051 412.398C617.051 412.398 616.996 407.372 617.906 404.629C617.906 404.629 617.748 402.852 616.537 403.124Z" fill="#1D3B54"></path><path d="M605.375 414.961L629.08 408.231L629.011 437.447L605.419 451.594L605.375 414.961Z" fill="#1D3B54"></path><path d="M605.418 451.594L608.387 452.141L631.336 437.861L631.05 408.367L629.079 408.231L605.418 451.594Z" fill="#1D3B54"></path><path d="M593.629 314.306C593.629 314.306 601.012 314.28 604.351 320.783C607.691 327.285 608.054 334.147 608.865 336.571C609.676 338.994 611.801 353.354 612.612 355.432C613.423 357.51 618.252 371.61 619.426 379.555C620.168 384.865 620.642 390.21 620.846 395.567L614.923 395.38C614.923 395.38 609.052 373.758 607.019 368.61C605.287 364.204 604.623 356.526 603.628 353.82C602.634 351.114 596.498 332.055 595.236 330.689C593.974 329.323 587.332 315.492 593.629 314.306Z" fill="#EEA886"></path><path d="M596.048 340.657L611.094 335.917C611.094 335.917 606.481 313.715 593.63 314.306C583.322 314.783 596.048 340.657 596.048 340.657Z" fill="#323657"></path><path d="M577.538 271.233C573.406 270.554 563.96 271.6 561.274 282.443C561.28 284.261 561.429 286.075 561.722 287.87C562.173 290.285 559.3 296.924 559.806 297.324C560.313 297.724 562.514 298.426 562.514 298.426C562.514 298.426 564.078 306.221 566.723 306.456C569.369 306.691 579.567 305.773 585.358 296.961C591.148 288.149 594.216 273.965 577.538 271.233Z" fill="#EEA886"></path><path d="M570.678 303.43C570.678 303.43 570.88 304.532 571.071 306.125C571.166 306.944 571.262 307.899 571.321 308.908C571.486 311.706 571.401 314.945 570.447 316.986C570.447 316.986 575.621 320.195 581.173 312.477C581.173 312.477 580.63 302.846 583.815 297.757C587 292.668 570.678 303.43 570.678 303.43Z" fill="#EEA886"></path><path d="M561.271 282.446C561.271 282.446 567.488 287.822 574.075 289.514C580.662 291.207 584.148 298.613 584.148 298.613C584.148 298.613 595.799 286.981 588.768 275.694C581.737 264.407 561.282 269.438 561.271 282.446Z" fill="#434343"></path><path d="M571.07 306.125C571.166 306.944 571.261 307.898 571.32 308.908C574.728 307.286 577.788 305.015 580.329 302.222C576.916 304.671 571.07 306.125 571.07 306.125Z" fill="#A77860"></path><path d="M575.287 289.896C575.287 289.896 582.024 308.023 581.217 312.385C581.217 312.385 584.784 311.772 591.125 313.715C591.132 313.715 588.065 281.378 575.287 289.896Z" fill="#434343"></path><path d="M583.467 312.969C583.467 312.969 581.265 326.554 573.035 325.027C564.804 323.499 571.053 313.531 571.053 313.531C571.053 313.531 574.26 310.652 583.467 312.969Z" fill="#EEA886"></path><path d="M423.194 143.972C423.195 152.547 420.654 160.93 415.893 168.06C411.132 175.191 404.365 180.748 396.447 184.03C388.529 187.312 379.817 188.171 371.411 186.498C363.006 184.826 355.285 180.696 349.224 174.633C343.164 168.569 339.037 160.844 337.366 152.433C335.694 144.023 336.552 135.305 339.832 127.383C343.112 119.461 348.667 112.689 355.793 107.926C362.919 103.162 371.297 100.62 379.867 100.621C385.564 100.596 391.209 101.701 396.477 103.871C401.744 106.041 406.53 109.233 410.558 113.264C414.586 117.294 417.777 122.083 419.946 127.354C422.114 132.624 423.218 138.272 423.194 143.972Z" fill="#EEF0F7"></path><path d="M75.4774 109.811H74.7031V183.072H75.4774V109.811Z" fill="#E0E0E0"></path><path d="M130.645 109.811H129.871V183.072H130.645V109.811Z" fill="#E0E0E0"></path><path d="M185.817 109.811H185.043V183.072H185.817V109.811Z" fill="#E0E0E0"></path><path d="M240.987 109.811H240.213V183.072H240.987V109.811Z" fill="#E0E0E0"></path><path d="M296.155 109.811H295.381V183.072H296.155V109.811Z" fill="#E0E0E0"></path><path d="M83.8655 187.412H75.0879V189.957H83.8655V187.412Z" fill="#B8B8B8"></path><path d="M88.302 100.782H75.0879V102.692H88.302V100.782Z" fill="#D9D9D9"></path><path d="M93.8321 104.314H75.0879V106.224H93.8321V104.314Z" fill="#D9D9D9"></path><path d="M145.181 100.782H129.666V102.692H145.181V100.782Z" fill="#D9D9D9"></path><path d="M139.585 104.314H129.666V106.224H139.585V104.314Z" fill="#D9D9D9"></path><path d="M195.435 100.782H185.82V102.692H195.435V100.782Z" fill="#D9D9D9"></path><path d="M197.027 104.314H185.82V106.224H197.027V104.314Z" fill="#D9D9D9"></path><path d="M254.988 100.782H240.984V102.692H254.988V100.782Z" fill="#D9D9D9"></path><path d="M252.191 104.314H240.984V106.224H252.191V104.314Z" fill="#D9D9D9"></path><path d="M304.131 100.782H295.768V102.692H304.131V100.782Z" fill="#D9D9D9"></path><path d="M302.461 104.314H295.768V106.224H302.461V104.314Z" fill="#D9D9D9"></path><path d="M139.039 187.412H130.262V189.957H139.039V187.412Z" fill="#B8B8B8"></path><path d="M194.598 187.412H185.82V189.957H194.598V187.412Z" fill="#B8B8B8"></path><path d="M249.762 187.412H240.984V189.957H249.762V187.412Z" fill="#B8B8B8"></path><path d="M304.936 187.412H296.158V189.957H304.936V187.412Z" fill="#B8B8B8"></path><path d="M276.651 161.303C259.44 161.303 244.483 154.609 228.887 147.629C209.637 139.015 189.729 130.104 163.202 132.546C146.27 134.11 135.636 140.312 126.26 145.786C117.765 150.746 109.747 155.105 98.8631 155.479C81.2895 156.081 75.1906 149.337 75.0879 148.925V144.596C75.1099 144.67 78.9483 152.241 98.8448 152.149C108.643 152.105 115.872 147.883 124.246 142.996C133.977 137.315 145.004 130.879 162.831 129.234C190.416 126.697 210.811 135.825 230.535 144.655C251.173 153.889 270.867 162.551 295.769 155.035V158.597C288.672 160.734 282.992 161.303 276.651 161.303Z" fill="url(#paint5_linear)"></path><path d="M173.359 160.473C160.659 160.473 150.586 152.788 140.722 145.261C133.243 139.555 125.486 133.721 116.528 130.846C89.1974 122.063 75.2127 138.098 75.0879 138.241V133.376C75.2383 133.211 77.73 130.295 84.9481 127.501C91.5166 124.968 102.54 122.945 117.743 127.707C127.376 130.721 135.375 136.823 143.115 142.728C158.806 154.701 172.361 165.044 195.898 148.845C213.728 136.578 230.531 124.883 247.066 120.613C263.242 116.435 280.093 119.493 295.872 133.699L295.754 138.127C262.229 107.825 233.68 127.024 198.144 151.488C188.727 157.976 180.614 160.473 173.359 160.473Z" fill="url(#paint6_linear)"></path><defs><linearGradient id="paint0_linear" x1="441.222" y1="137.535" x2="583.635" y2="130.418" gradientUnits="userSpaceOnUse"><stop stop-color="#40D5E6"></stop><stop offset="1" stop-color="#5577FF"></stop></linearGradient><linearGradient id="paint1_linear" x1="-74204.8" y1="398038" x2="-58469.7" y2="380231" gradientUnits="userSpaceOnUse"><stop stop-color="#40D5E6"></stop><stop offset="1" stop-color="#5577FF"></stop></linearGradient><linearGradient id="paint2_linear" x1="739699" y1="45425.6" x2="727871" y2="45425.6" gradientUnits="userSpaceOnUse"><stop stop-color="#40D5E6"></stop><stop offset="1" stop-color="#5577FF"></stop></linearGradient><linearGradient id="paint3_linear" x1="-106902" y1="275530" x2="-95508.7" y2="255362" gradientUnits="userSpaceOnUse"><stop stop-color="#40D5E6"></stop><stop offset="1" stop-color="#5577FF"></stop></linearGradient><linearGradient id="paint4_linear" x1="291967" y1="19666.4" x2="745164" y2="19666.4" gradientUnits="userSpaceOnUse"><stop stop-color="#40D5E6"></stop><stop offset="1" stop-color="#5577FF"></stop></linearGradient><linearGradient id="paint5_linear" x1="318980" y1="24789.6" x2="183572" y2="24789.6" gradientUnits="userSpaceOnUse"><stop stop-color="#40D5E6"></stop><stop offset="1" stop-color="#5577FF"></stop></linearGradient><linearGradient id="paint6_linear" x1="171746" y1="31064.9" x2="304591" y2="31064.9" gradientUnits="userSpaceOnUse"><stop stop-color="#40D5E6"></stop><stop offset="1" stop-color="#5577FF"></stop></linearGradient></defs></svg> 